HIERARCHY
ROOT Hips
{
  OFFSET -35.4901 99.2528 17.4586
  CHANNELS 6 Xposition Yposition Zposition Zrotation Xrotation Yrotation
  JOINT LeftUpLeg
  {
    OFFSET 8.64259 1.95398 -2.38835
    CHANNELS 3 Zrotation Xrotation Yrotation
    JOINT LeftLeg
    {
      OFFSET 43.7702 0 0
      CHANNELS 3 Zrotation Xrotation Yrotation
      JOINT LeftFoot
      {
        OFFSET 40.6238 0 0
        CHANNELS 3 Zrotation Xrotation Yrotation
        JOINT LeftToeBase
        {
          OFFSET 12.7242 0 0
          CHANNELS 3 Zrotation Xrotation Yrotation
          End Site
          {
            OFFSET 0 0 0
          }
        }
      }
    }
  }
  JOINT RightUpLeg
  {
    OFFSET -8.2249 1.95398 -2.59336
    CHANNELS 3 Zrotation Xrotation Yrotation
    JOINT RightLeg
    {
      OFFSET 43.5653 0 0
      CHANNELS 3 Zrotation Xrotation Yrotation
      JOINT RightFoot
      {
        OFFSET 40.6238 0 0
        CHANNELS 3 Zrotation Xrotation Yrotation
        JOINT RightToeBase
        {
          OFFSET 12.7242 0 0
          CHANNELS 3 Zrotation Xrotation Yrotation
          End Site
          {
            OFFSET 0 0 0
          }
        }
      }
    }
  }
  JOINT Spine
  {
    OFFSET 0.165834 0.87714 6.61349
    CHANNELS 3 Zrotation Xrotation Yrotation
    JOINT Spine1
    {
      OFFSET 7.38963 1.71661e-005 0
      CHANNELS 3 Zrotation Xrotation Yrotation
      JOINT Spine2
      {
        OFFSET 11.9445 1.14441e-005 0
        CHANNELS 3 Zrotation Xrotation Yrotation
        JOINT Spine3
        {
          OFFSET 14.7254 4.19617e-005 0
          CHANNELS 3 Zrotation Xrotation Yrotation
          JOINT Spine4
          {
            OFFSET 10.9679 0 0
            CHANNELS 3 Zrotation Xrotation Yrotation
            JOINT RightShoulder
            {
              OFFSET 2.46616 -1.6653 3.69651
              CHANNELS 3 Zrotation Xrotation Yrotation
              JOINT RightArm
              {
                OFFSET 13.0012 0 0
                CHANNELS 3 Zrotation Xrotation Yrotation
                JOINT RightForeArm
                {
                  OFFSET 28.7848 1.52588e-005 0
                  CHANNELS 3 Zrotation Xrotation Yrotation
                  JOINT RightHand
                  {
                    OFFSET 26.5688 1.52588e-005 0
                    CHANNELS 3 Zrotation Xrotation Yrotation
                    End Site
                    {
                      OFFSET 0 0 0
                    }
                  }
                }
              }
            }
            JOINT LeftShoulder
            {
              OFFSET 2.38034 -1.29275 -3.7523
              CHANNELS 3 Zrotation Xrotation Yrotation
              JOINT LeftArm
              {
                OFFSET 16.3182 6.10351e-005 0
                CHANNELS 3 Zrotation Xrotation Yrotation
                JOINT LeftForeArm
                {
                  OFFSET 27.0901 0 0
                  CHANNELS 3 Zrotation Xrotation Yrotation
                  JOINT LeftHand
                  {
                    OFFSET 24.5451 1.52588e-005 0
                    CHANNELS 3 Zrotation Xrotation Yrotation
                    End Site
                    {
                      OFFSET 0 0 0
                    }
                  }
                }
              }
            }
            JOINT Neck
            {
              OFFSET 5.0226 -0.0266342 0
              CHANNELS 3 Zrotation Xrotation Yrotation
              JOINT Head
              {
                OFFSET 6.69364 2.86102e-005 0
                CHANNELS 3 Zrotation Xrotation Yrotation
                End Site
                {
                  OFFSET 0 0 0
                }
              }
            }
          }
        }
      }
    }
  }
}
MOTION
Frames:	12
Frame Time:	0.0416667
-1.07391 108.058 -1.51148 87.4077 49.128 91.5216 -170.698 1.4861 98.0395 -71.6713 25.3948 6.5322 50.7737 -3.29752 -1.14992 18.9402 1.77411 -1.65307 170.966 3.78015 91.1609 -94.4953 -14.5906 -0.813692 61.1351 -0.984744 -0.0570083 21.5592 -1.91421 5.21522 0.195969 7.20835 -90.522 12.4566 0.140947 -1.0584 0.785218 0.0942287 -1.06357 -21.747 0.452503 -0.967108 -1.73431 0.452499 -0.967126 102.76 9.02305 -79.7187 -4.69277 40.6717 -39.6133 -1.79155 -11.2598 -8.55003 -26.358 1.18987 -11.6868 -80.2458 -4.81905 89.1946 13.9863 -40.955 -56.9537 13.7498 -1.20949 -4.09127 5.23554 -0.251648 -6.8315 -29.2205 -0.453176 -5.89358 -0.0420637 -1.09657 2.95221 
5.82284 109.224 -7.53699 85.8347 48.6602 92.2043 -167.667 22.1573 93.5794 -95.8146 12.129 5.00488 61.5974 0.978254 1.1233 16.2885 2.19388 -1.92436 176.173 29.9302 81.6926 -116.15 -17.12 -0.421928 70.5375 -5.44701 -2.41972 20.3727 -1.23205 3.74965 -0.0385197 8.4187 -90.6458 10.033 -0.370478 -1.25556 -1.63852 -0.425365 -1.23805 -24.1688 0.0239509 -1.30885 -4.15616 0.0239737 -1.30885 101.564 -1.76124 -85.1348 -13.2021 31.1302 -10.3079 -0.496415 -10.7678 -9.30048 -26.9479 0.812945 -9.73596 -79.9566 -6.72914 90.2656 29.3133 -25.8648 -25.9227 8.76079 -0.629288 -4.13318 3.84326 -0.253304 -7.4567 -30.6138 0.106453 -5.14547 2.87283 -0.372719 4.42114 
12.6189 107.691 -12.3129 82.8137 49.6584 93.3989 -161.438 46.4048 81.8397 -103.338 10.1176 4.22829 70.7549 5.0184 1.83745 11.4511 2.82686 -2.1662 178.188 53.2843 83.0172 -108.175 -13.163 -0.556394 79.386 -10.0966 -4.29023 19.4735 -1.29044 3.89987 -0.197985 9.81704 -90.5888 7.23502 -0.649101 -1.13115 -4.43623 -0.698261 -1.1015 -26.9678 -0.279172 -1.27392 -6.95513 -0.279162 -1.27393 98.2828 -7.09909 -94.7693 -1.9156 17.2293 7.53967 2.60771 -10.622 -5.13 -26.0267 1.56462 -13.4796 -81.2852 -9.92531 87.1019 29.9239 1.21099 -10.2168 -0.166003 -2.49627 -1.98189 2.88398 -0.224179 -7.2808 -25.1931 -0.164299 -6.26072 4.98966 -0.374438 4.95013 
21.083 103.076 -18.576 79.1085 50.5548 96.7177 -156.749 61.8297 73.0839 -88.1792 12.2088 -0.137666 77.1045 7.46503 -0.667005 12.0577 -0.329972 1.68239 174.926 61.5691 86.5532 -76.5816 -9.60148 0.165434 80.0313 -9.64742 -2.40646 17.3456 -0.34148 2.0173 -0.0301319 11.0327 -90.8367 4.80246 -0.403278 -1.63517 -6.86942 -0.474825 -1.61586 -29.3963 0.106725 -1.68077 -9.38362 0.106732 -1.68077 95.9897 -15.0042 -98.6232 11.9871 6.9752 9.51585 5.80504 -14.7391 -4.99657 -26.4129 1.40638 -13.1751 -83.6797 -18.1811 82.834 18.673 8.13139 -5.63131 -1.66548 -2.17151 0.136912 6.21458 -0.356137 -7.92407 -13.0051 -1.41483 -6.76089 3.68855 -1.01872 5.78071 
32.3315 95.1061 -27.7434 75.269 47.6535 100.368 -162.922 68.1901 79.4553 -61.3787 13.0477 -6.03838 75.7086 6.35038 -3.3503 18.5141 -2.82937 4.73557 174.147 58.2127 90.0297 -44.1061 -15.2012 1.09308 71.7983 -5.41348 -0.90738 20.9924 0.102298 0.744551 0.196135 11.6685 -90.9226 3.5328 0.0234605 -1.80494 -8.1394 -0.056004 -1.80423 -30.6652 0.564742 -1.71451 -10.6525 0.564743 -1.7145 92.6119 -20.052 -105.332 23.8196 3.46279 8.72448 6.91327 -11.7755 -8.60569 -27.6061 1.6264 -13.3766 -84.3674 -26.3055 83.519 0.256602 4.81418 -4.02887 1.16774 -0.0719719 -0.00096659 5.43557 -0.322635 -7.66402 -3.67591 -1.07311 -2.45337 1.15386 -0.69418 2.82818 
44.4725 80.5572 -38.162 82.0608 45.168 95.5168 -173.165 66.9451 90.1417 -51.9885 15.4081 -4.45309 74.4505 5.86125 -4.76755 20.2572 -1.27921 2.75669 -178.318 62.7463 89.0574 -64.7939 -11.7801 -1.13106 70.8698 -5.12356 -1.8056 21.7444 -2.69394 7.02097 0.303048 11.6263 -90.552 3.62341 0.384725 -1.08067 -8.04792 0.336803 -1.09656 -30.581 0.691719 -0.915106 -10.5683 0.691727 -0.915105 88.0932 -31.0369 -110.057 25.9705 2.52178 4.08934 6.84604 -13.7797 -6.30234 -23.1616 0.71592 -10.4095 -85.1183 -38.1124 84.1529 -5.69333 11.1599 -8.53926 -3.48109 -6.52076 -0.0065533 7.93032 0.0742887 -2.63592 -6.10053 0.230317 -1.11193 0.826296 0.398595 2.61679 
52.9652 69.5746 -46.404 90.8455 40.8812 92.4453 -176.516 74.6114 93.3568 -77.1609 19.0714 2.32633 64.719 2.35845 2.25464 5.96105 -9.08421 11.7433 176.366 68.9245 96.9183 -95.758 -17.5385 -0.08033 73.6996 -7.40122 -5.11408 29.6588 -2.78971 7.57866 0.522437 12.0274 -90.4348 2.8212 0.872616 -0.839234 -8.84976 0.834855 -0.876842 -31.3862 1.08451 -0.538166 -11.3736 1.0845 -0.538178 84.557 -31.9654 -116.348 20.3045 0.437895 -15.5516 9.28055 -11.9024 -1.31837 -27.4165 0.422994 -8.18439 -87.5606 -44.4996 81.3707 -9.94658 5.99152 -26.0274 0.578552 4.87643 0.000882665 1.77589 -0.177542 -6.77217 -0.0866857 1.66083 -0.466298 2.11473 1.82162 3.3631 
60.1668 63.8303 -52.7558 96.5114 44.2031 84.2509 -156.391 75.4918 71.389 -97.2755 18.8009 4.1075 73.4529 6.44632 3.51567 13.217 -2.9872 5.04277 -177.376 66.0761 86.5331 -113.167 -17.2262 -0.417693 83.027 -12.1875 -6.05057 36.9626 -2.94256 8.58484 0.373736 12.5739 -90.0221 1.72542 0.737831 -0.0267958 -9.94535 0.735942 -0.059253 -32.4819 0.711774 0.196191 -12.4693 0.711771 0.196205 87.4433 -25.1159 -114.191 14.1904 7.81736 -42.0924 3.51213 -17.1778 -8.20256 -27.3736 0.533971 -9.18801 -90.1633 -40.0206 76.0425 -7.24925 0.79918 -59.8964 3.21995 4.99659 -1.11523 6.01897 -0.450607 -9.36108 4.70504 0.711818 -0.431937 2.50617 0.788328 0.569758 
65.6172 63.5629 -56.8748 94.1578 46.5016 84.3242 -143.89 74.5199 60.8724 -104.164 20.4382 4.32369 76.8739 8.03232 3.42065 12.3945 -2.44734 4.27363 -173.051 62.933 83.5287 -116.971 -14.1212 -0.446808 84.1076 -12.1666 -4.61821 47.2238 -2.4914 7.74774 0.474266 12.2426 -89.9168 2.38714 0.979305 0.181077 -9.28344 0.986353 0.137783 -31.8209 0.879613 0.467046 -11.8083 0.879623 0.467059 91.9263 -13.9986 -109.909 10.5288 21.4062 -61.6931 1.68161 -14.071 -11.3415 -29.419 0.977536 -10.3559 -89.4139 -29.4525 74.251 -10.2563 -9.26488 -84.0446 9.33373 6.84111 -8.65469 8.06428 -0.592438 -9.83538 6.23707 -1.25117 1.80472 6.1292 -1.61399 -0.647207 
71.3154 67.8855 -60.6802 90.889 50.4608 84.5266 -148.453 69.0238 65.3365 -102.049 24.1685 3.86063 77.7832 8.79301 5.06886 13.4679 1.51775 -0.759895 -175.248 55.2126 85.2826 -112.288 -8.89532 -0.681889 84.8629 -12.5272 -4.2895 52.9462 -2.15285 6.16462 0.442475 11.6696 -89.7315 3.53231 0.99142 0.525662 -8.13836 1.01361 0.481502 -30.6748 0.787595 0.799319 -10.6621 0.787613 0.799321 96.5506 -4.02725 -101.804 12.3777 32.1681 -71.1583 -0.155728 -8.81181 -12.4394 -31.3965 1.82375 -12.5695 -86.3808 -18.1484 76.6332 -10.2915 -15.897 -98.4331 10.9101 0.865655 -16.4898 8.58985 -0.637882 -9.991 3.09455 -2.92042 -1.20741 8.97024 -2.76058 -0.999718 
77.4765 75.0284 -65.3158 88.3942 52.6605 84.7454 -157.479 59.6328 75.2871 -93.647 27.5545 2.20668 77.4475 8.6025 4.64967 17.1801 2.01988 -1.81572 -177.059 49.2779 85.8045 -103.935 -8.1674 -0.998503 70.7623 -5.72905 -3.42984 56.3261 -2.89008 12.8514 0.345602 10.9664 -89.6652 4.93816 0.828342 0.643734 -6.73268 0.855859 0.606643 -29.2678 0.596573 0.862915 -9.25515 0.596582 0.862921 98.3002 2.74051 -99.1678 12.751 36.9456 -69.581 -1.95562 -13.2238 -14.6049 -30.7378 1.65535 -12.5887 -84.2791 -11.8349 79.5527 -17.9249 -20.1438 -102.224 18.0335 6.57634 -31.2673 4.65243 -0.653154 -13.5168 -3.4757 -3.07335 -1.42478 11.0545 -2.92585 -0.499108 
84.1204 82.5616 -70.2078 86.409 52.1701 87.0572 -165.626 48.3759 85.331 -81.2584 27.1229 0.7871 76.3585 7.82807 2.67947 29.5362 2.82272 -4.87528 -176.122 47.3128 86.4948 -95.5263 -15.9322 -1.46202 51.1374 3.27701 0.654947 38.6739 -3.23061 9.89977 0.432816 10.3484 -89.6488 6.17357 1.013 0.658091 -5.49712 1.04097 0.612875 -28.033 0.768377 0.932112 -8.02032 0.768386 0.932121 98.1942 1.73663 -99.1993 8.23017 37.2887 -65.0817 -1.8866 -17.791 -16.4893 -28.756 1.55714 -13.3314 -85.4189 -16.5056 78.3767 -19.6783 -21.5481 -101.086 24.51 9.85004 -47.1023 4.53521 -0.756712 -15.378 -6.47921 -2.7727 -3.2344 11.1028 -2.4584 0.103831 
